<?xml version="1.0" encoding="utf-8"?>
<!-- Svg Vector Icons : http://www.onlinewebfonts.com/icon -->
<!DOCTYPE svg PUBLIC "-//W3C//DTD SVG 1.1//EN" "http://www.w3.org/Graphics/SVG/1.1/DTD/svg11.dtd">
<svg version="1.1" xmlns="http://www.w3.org/2000/svg" xmlns:xlink="http://www.w3.org/1999/xlink" x="0px" y="0px" viewBox="0 0 1000 1000" enable-background="new 0 0 1000 1000" xml:space="preserve">
<metadata> Svg Vector Icons : http://www.onlinewebfonts.com/icon </metadata>
<g><g transform="translate(0.000000,511.000000) scale(0.100000,-0.100000)"><path d="M619.2,3568.8c-329.9-106.9-519.2-351.3-519.2-675c0-85.5,21.4-204.6,45.8-268.8c33.6-76.4,412.3-479.5,1185.1-1249.2L2467.1,236.5L1330.9-899.7C558.1-1672.5,179.4-2075.6,145.8-2152c-58-140.5-61.1-390.9-6.1-522.3c64.1-146.6,195.5-290.2,339-363.5c171-88.6,445.9-88.6,613.9,0c177.1,91.6,2932.2,2858.9,2993.2,3005.5c58,146.6,58,391,0,537.6c-61.1,143.6-2816.1,2913.8-2987.1,3002.4C967.4,3577.9,732.3,3605.4,619.2,3568.8z"/><path d="M5185.4-2051.2c-442.9-201.6-546.7-778.8-204.6-1124c201.6-201.6,137.4-195.5,2422.1-186.3l2061.7,9.2l128.3,85.5c198.5,128.3,293.2,296.3,305.4,537.6c18.3,317.6-109.9,546.7-375.7,672c-134.4,64.1-161.9,64.1-2174.7,64.1C5439-1993.2,5298.5-1999.3,5185.4-2051.2z"/></g></g>
</svg>